<?xml version="1.0" encoding="iso-8859-1"?>
<!-- Generator: Adobe Illustrator 19.0.0, SVG Export Plug-In . SVG Version: 6.00 Build 0)  -->
<svg version="1.1" id="Capa_1" xmlns="http://www.w3.org/2000/svg" xmlns:xlink="http://www.w3.org/1999/xlink" x="0px" y="0px"
	 viewBox="0 0 512 512" style="enable-background:new 0 0 512 512;" xml:space="preserve">
<g>
	<path style="fill:#FFC813;" d="M471.492,83.531H256l-20.016,94.771L512,158.286v-34.247C512,101.667,493.864,83.531,471.492,83.531
		z"/>
	<path style="fill:#FFC813;" d="M256,428.469h215.492c22.372,0,40.508-18.136,40.508-40.508V244.332l-276.016-20.016L256,428.469z"
		/>
</g>
<g>
	<path style="fill:#FFDB69;" d="M256,83.531H40.508C18.136,83.531,0,101.667,0,124.039v34.247l256,20.016V83.531z"/>
	<path style="fill:#FFDB69;" d="M0,244.332v143.629c0,22.372,18.136,40.508,40.508,40.508H256V224.316L0,244.332z"/>
</g>
<rect x="40.15" y="335.65" style="fill:#FFEBAE;" width="195.51" height="30"/>
<rect x="276.34" y="335.65" style="fill:#FFDB69;" width="195.51" height="30"/>
<polygon style="fill:#FF515E;" points="256,244.332 512,244.332 512,158.286 256,158.286 235.984,201.309 "/>
<rect y="158.29" style="fill:#FF8891;" width="256" height="86.05"/>
<polygon style="fill:#FFDB69;" points="471.853,282.489 256,282.489 235.984,297.489 256,312.489 471.853,312.489 "/>
<rect x="40.15" y="282.49" style="fill:#FFEBAE;" width="215.85" height="30"/>
<g>
</g>
<g>
</g>
<g>
</g>
<g>
</g>
<g>
</g>
<g>
</g>
<g>
</g>
<g>
</g>
<g>
</g>
<g>
</g>
<g>
</g>
<g>
</g>
<g>
</g>
<g>
</g>
<g>
</g>
</svg>
